<svg width="178" height="30" xmlns="http://www.w3.org/2000/svg"><g fill="none" fill-rule="evenodd"><path d="M45.605 20.194c1.099 0 1.972-.22 2.619-.662.647-.442.97-1.041.97-1.798v-.035c0-.745-.332-1.321-.998-1.728-.665-.408-1.633-.61-2.902-.61h-4.341v4.833h4.652zm-.422-5.64c.477 0 .916-.054 1.32-.164.402-.109.75-.267 1.043-.475.293-.207.522-.466.687-.776a2.25 2.25 0 0 0 .247-1.071v-.035c0-.667-.275-1.206-.824-1.614-.55-.409-1.343-.613-2.381-.613h-4.322v4.748h4.23zM40 9h5.283c.731 0 1.38.095 1.947.284.566.188 1.026.45 1.38.78.548.517.823 1.146.823 1.89v.035c0 .412-.065.773-.193 1.082a2.78 2.78 0 0 1-.502.807c-.207.229-.441.42-.703.576-.262.154-.52.283-.777.385.378.092.743.215 1.097.369.354.153.661.348.924.581.262.234.472.508.63.821.159.315.238.676.238 1.087v.035c0 .501-.11.955-.329 1.36a2.96 2.96 0 0 1-.932 1.026c-.403.28-.884.497-1.445.651a7.116 7.116 0 0 1-1.883.231H40V9zm13.191 12h.993V9h-.993zm7.17-11.194h-4.126V9h9.133v.806H61.24V21h-.88V9.806M73.602 22a6.08 6.08 0 0 1-4.449-1.876 6.25 6.25 0 0 1-1.293-2.056 6.886 6.886 0 0 1-.463-2.532V15.5a6.725 6.725 0 0 1 1.774-4.588A6.026 6.026 0 0 1 73.638 9c.558 0 1.063.048 1.515.144.452.095.87.233 1.257.413a6.58 6.58 0 0 1 1.088.637c.339.245.669.518.99.817l-.66.683a10.04 10.04 0 0 0-.856-.737 5.36 5.36 0 0 0-2.06-.97 5.518 5.518 0 0 0-1.293-.143 5.07 5.07 0 0 0-2.086.43 5.054 5.054 0 0 0-1.667 1.195 5.637 5.637 0 0 0-1.105 1.787 5.994 5.994 0 0 0-.401 2.208v.036c0 .79.136 1.53.41 2.218a5.735 5.735 0 0 0 1.114 1.796c.47.508 1.025.91 1.668 1.203a4.96 4.96 0 0 0 2.086.44c.903 0 1.687-.168 2.353-.503.666-.335 1.314-.82 1.944-1.455l.624.61c-.333.323-.675.62-1.026.89a6.181 6.181 0 0 1-2.416 1.14 6.731 6.731 0 0 1-1.515.161m13.087-.843a4.83 4.83 0 0 0 2.066-.44 4.987 4.987 0 0 0 1.624-1.203 5.55 5.55 0 0 0 1.064-1.787c.252-.683.38-1.413.38-2.191V15.5c0-.778-.13-1.511-.39-2.2a5.646 5.646 0 0 0-1.071-1.795 5.08 5.08 0 0 0-1.633-1.212 4.8 4.8 0 0 0-2.074-.449 4.81 4.81 0 0 0-2.066.44 4.968 4.968 0 0 0-1.624 1.203 5.518 5.518 0 0 0-1.063 1.787 6.227 6.227 0 0 0-.38 2.19v.036c0 .778.129 1.511.388 2.2.26.688.616 1.286 1.07 1.795a5.117 5.117 0 0 0 1.635 1.213 4.817 4.817 0 0 0 2.074.449zm-.034.843c-.922 0-1.755-.177-2.498-.53a5.984 5.984 0 0 1-1.91-1.418 6.368 6.368 0 0 1-1.227-2.056 7.026 7.026 0 0 1-.432-2.46V15.5c0-.862.147-1.685.44-2.469a6.584 6.584 0 0 1 1.236-2.074 5.876 5.876 0 0 1 1.92-1.428C84.931 9.176 85.766 9 86.688 9c.91 0 1.74.176 2.489.53.75.353 1.388.826 1.919 1.418a6.37 6.37 0 0 1 1.227 2.056c.288.779.432 1.598.432 2.46.011.012.011.024 0 .036 0 .862-.147 1.685-.441 2.469a6.598 6.598 0 0 1-1.236 2.074 5.865 5.865 0 0 1-1.927 1.428c-.755.352-1.587.529-2.497.529zm10.169-1h.992V9h-.992zm5.073-12h.854l8.422 10.44V9h.871v12h-.68l-8.595-10.662V21h-.872V9m17.157 1.955h-3.966V9h10.147v1.955h-3.966V21h-2.215V10.955m13.387 3.994c1.503 0 2.46-.789 2.46-2.006v-.034c0-1.286-.923-1.989-2.478-1.989h-3.057v4.029h3.075zM127.265 9h5.329c1.503 0 2.683.446 3.45 1.2.633.652.992 1.543.992 2.589v.034c0 1.971-1.179 3.154-2.853 3.634L137.412 21h-2.477l-2.939-4.183h-2.63V21h-2.101V9zm21.937 7.268l-2.187-4.766-2.168 4.766h4.355zM146.022 9h2.06l5.565 12h-2.349l-1.283-2.877h-5.982l-1.3 2.877h-2.277l5.566-12zm13.242 10.08c2.592 0 4.285-1.697 4.285-4.046V15c0-2.349-1.693-4.08-4.285-4.08h-2.433v8.16h2.433zM154.662 9h4.602c3.88 0 6.56 2.589 6.56 5.966V15c0 3.377-2.68 6-6.56 6h-4.602V9zm14.206 0h9.046v1.886h-6.902v3.12h6.117v1.885h-6.117v3.223H178V21h-9.132V9" fill="#fff"/><path stroke="#fff" d="M.5.5h29v29H.5z"/><path d="M15.062 13.577H10V7.724h5.21c2.478 0 3.841 1.093 3.841 2.769v.048c0 1.992-1.635 3.036-3.99 3.036zm5.971-3.303c0-1.141-.396-2.04-1.115-2.768C18.928 6.558 17.366 6 15.384 6H8v11h2v-1.723h5.409c3.023 0 4.609 1.068 4.609 2.914 0 1.943-1.636 3.085-4.262 3.085H10V20H8v3h7.706C19.497 23 22 21.276 22 18.362c0-2.38-1.66-3.546-3.717-4.153 1.363-.583 2.75-1.725 2.75-3.935z" fill="#fff"/><path fill="#fff" d="M6 19.2h6v-1.5H6z"/></g></svg>